<svg xmlns="http://www.w3.org/2000/svg" xmlns:xlink="http://www.w3.org/1999/xlink" width="1059.62" height="241.836" viewBox="0 0 1059.62 241.836">
  <defs>
    <linearGradient id="linear-gradient" x1="0.5" x2="0.5" y2="1" gradientUnits="objectBoundingBox">
      <stop offset="0" stop-color="#f5f5f5"/>
      <stop offset="1" stop-color="#dbc4ff"/>
    </linearGradient>
    <linearGradient id="linear-gradient-3" x2="2.033" y2="1.157" xlink:href="#linear-gradient"/>
    <linearGradient id="linear-gradient-9" x1="0.5" x2="0.5" y2="1" gradientUnits="objectBoundingBox">
      <stop offset="0" stop-color="#ae82f1"/>
      <stop offset="1" stop-color="#aa7bf1"/>
    </linearGradient>
  </defs>
  <g id="组_16182" data-name="组 16182" transform="translate(-826 -20273)">
    <path id="路径_41913" data-name="路径 41913" d="M302.825,156.577a.857.857,0,0,1-.923-.921V105.474a.857.857,0,0,1,.923-.921h8.15a1.278,1.278,0,0,1,1.135.637l23.248,35.936V105.474a.856.856,0,0,1,.921-.921h7.372a.856.856,0,0,1,.921.921v50.182a.856.856,0,0,1-.921.921h-8.081a1.275,1.275,0,0,1-1.133-.639l-23.319-36v35.723a.857.857,0,0,1-.923.921Z" transform="translate(1112.192 20331.813)" fill="#f5f5f5"/>
    <path id="路径_41912" data-name="路径 41912" d="M293.014,156.577a.856.856,0,0,1-.921-.921V105.474a.856.856,0,0,1,.921-.921h7.727a.856.856,0,0,1,.921.921v50.182a.856.856,0,0,1-.921.921Z" transform="translate(1102.233 20331.813)" fill="#f5f5f5"/>
    <path id="路径_41910" data-name="路径 41910" d="M264.893,156.577c-.637,0-.992-.425-.709-1.064l20.767-50.253a1.063,1.063,0,0,1,1.064-.707h6.592a1.058,1.058,0,0,1,1.062.707l20.767,50.253c.284.639-.071,1.064-.707,1.064H304.8a1.06,1.06,0,0,1-1.062-.709l-3.686-9.71H278.431l-3.686,9.71a1.063,1.063,0,0,1-1.064.709Zm16.87-19.278h14.885L289.2,117.594Z" transform="translate(1073.798 20331.813)" fill="#f5f5f5"/>
    <path id="路径_41909" data-name="路径 41909" d="M240.6,156.577a.857.857,0,0,1-.923-.921V105.474a.857.857,0,0,1,.923-.921h7.725a.855.855,0,0,1,.921.921v19.917h24.1V105.474a.857.857,0,0,1,.923-.921h7.725a.855.855,0,0,1,.921.921v50.182a.855.855,0,0,1-.921.921h-7.725a.857.857,0,0,1-.923-.921V134.393h-24.1v21.263a.855.855,0,0,1-.921.921Z" transform="translate(1049.012 20331.813)" fill="#f5f5f5"/>
    <path id="路径_41907" data-name="路径 41907" d="M254.1,119.049a.619.619,0,0,1-.933.034,19.862,19.862,0,0,0-13.968-6.394,17.687,17.687,0,1,0,0,35.372,21.231,21.231,0,0,0,14-5.8.62.62,0,0,1,.881.034l5.207,5.8a.594.594,0,0,1-.024.824,30.322,30.322,0,0,1-20.592,8.728c-15.671,0-27.764-11.791-27.764-27.158,0-15.213,12.247-26.851,28.145-26.851a29.642,29.642,0,0,1,20.159,8.142.594.594,0,0,1,.046.8Z" transform="translate(1019.805 20330.715)" fill="#f5f5f5"/>
    <path id="多边形_1" data-name="多边形 1" d="M17.71,1.836a2.5,2.5,0,0,1,3.58,0L34.861,15.755A2.5,2.5,0,0,1,33.071,20H5.929a2.5,2.5,0,0,1-1.79-4.245Z" transform="translate(1212 20441.934) rotate(90)" fill="#ac7ff1"/>
    <path id="联合_74" data-name="联合 74" d="M-4540-13479a6,6,0,0,1-6-6v-44.026l-36.76-36.76a6,6,0,0,1,0-8.486l8.486-8.485a6,6,0,0,1,8.486,0l31.339,31.339,31.339-31.339a6,6,0,0,1,8.486,0l8.486,8.485a6,6,0,0,1,0,8.486l-35.864,35.863V-13485a6,6,0,0,1-6,6Z" transform="translate(6370 33891)" fill="url(#linear-gradient)"/>
    <path id="联合_73" data-name="联合 73" d="M-4497.831-13480.084l-10.408-20.428h-44.454l-10.409,20.428a5.18,5.18,0,0,1-6.969,2.265l-12.311-6.273a5.179,5.179,0,0,1-2.267-6.969l43.394-85.163a12.086,12.086,0,0,1,10.79-6.606,12.092,12.092,0,0,1,10.791,6.606l43.393,85.163a5.182,5.182,0,0,1-2.267,6.969l-12.311,6.273a5.164,5.164,0,0,1-2.349.565A5.185,5.185,0,0,1-4497.831-13480.084Zm-20.848-40.918-11.787-23.134-11.788,23.134Z" transform="translate(5886 33889)" fill="url(#linear-gradient)"/>
    <path id="路径_41917" data-name="路径 41917" d="M12.092,0A12.092,12.092,0,0,1,24.183,12.092V44.336A12.092,12.092,0,1,1,0,44.336V12.092A12.092,12.092,0,0,1,12.092,0Z" transform="translate(1662.9 20300) rotate(45)" fill="url(#linear-gradient-3)"/>
    <path id="路径_41922" data-name="路径 41922" d="M12.092,0A12.092,12.092,0,0,1,24.183,12.092V44.336A12.092,12.092,0,1,1,0,44.336V12.092A12.092,12.092,0,0,1,12.092,0Z" transform="translate(1625.027 20376.197) rotate(-45)" fill="#ad80f1"/>
    <path id="路径_41915" data-name="路径 41915" d="M7.243,19.42a13.014,13.014,0,0,1,6.515-2.974,12.921,12.921,0,0,1,6.94.425A14.325,14.325,0,0,1,25.23,19.42q1.558,1.416,4.957,4.815a27.86,27.86,0,0,0,6.657,5.1,16.782,16.782,0,0,0,8.64,1.416,11.339,11.339,0,0,0,7.223-2.124,8.531,8.531,0,0,0,3.258-5.382,7.9,7.9,0,0,0-1.416-6.09,13.22,13.22,0,0,0-5.665-3.4,118.456,118.456,0,0,0-13.03-3.4,93.978,93.978,0,0,1-15.3-4.532,29.42,29.42,0,0,1-10.2-6.657A24.607,24.607,0,0,1,4.552-11.6,31.469,31.469,0,0,1,4.41-26.469a30.967,30.967,0,0,1,5.1-11.047,29.244,29.244,0,0,1,9.914-8.5,44.289,44.289,0,0,1,14.73-4.674,52.711,52.711,0,0,1,15.863-.142A57.014,57.014,0,0,1,63.47-46.156a41.136,41.136,0,0,1,10.481,6.94,16.885,16.885,0,0,1,4.815,7.082,12.1,12.1,0,0,1-.142,7.082,11.362,11.362,0,0,1-5.24,6.232,13.857,13.857,0,0,1-8.356,2.266,12.1,12.1,0,0,1-8.5-3.116l-3.966-3.966a26.482,26.482,0,0,0-5.24-3.682,15.633,15.633,0,0,0-4.391-1.7,12.143,12.143,0,0,0-5.382.708,10.3,10.3,0,0,0-4.532,2.974,4.551,4.551,0,0,0-1.133,4.249,7.313,7.313,0,0,0,2.691,4.674q2.408,2.124,8.923,3.4T58.23-9.473A54.18,54.18,0,0,1,72.393-3.525a27.66,27.66,0,0,1,9.348,9.348,25.949,25.949,0,0,1,3.4,13.6,42.472,42.472,0,0,1-2.266,11.755A30.115,30.115,0,0,1,76.5,41.8q-4.391,4.815-13.313,8.356a51.892,51.892,0,0,1-20.537,3.258,62.491,62.491,0,0,1-13.313-1.416,48.45,48.45,0,0,1-12.605-4.674,26.845,26.845,0,0,1-9.206-7.506A22.231,22.231,0,0,1,3.56,31.883,12.851,12.851,0,0,1,3.844,24.8,12.008,12.008,0,0,1,7.243,19.42Z" transform="translate(1419.804 20357.363)" fill="url(#linear-gradient)"/>
    <path id="联合_84" data-name="联合 84" d="M-320-19571a6,6,0,0,1-6-6v-34h-47v34a6,6,0,0,1-6,6h-12a6,6,0,0,1-6-6v-93a6,6,0,0,1,6-6h12a6,6,0,0,1,6,6v35h47v-35a6,6,0,0,1,6-6h12a6,6,0,0,1,6,6v93a6,6,0,0,1-6,6Z" transform="translate(1916.001 39982)" fill="url(#linear-gradient)"/>
    <path id="联合_85" data-name="联合 85" d="M-390.943-19571.2a6.054,6.054,0,0,1-6.059-6.045v-92.7a6.06,6.06,0,0,1,6.059-6.055h68.53a6.056,6.056,0,0,1,6.044,6.055v12.088a6.051,6.051,0,0,1-6.044,6.045h-50.4V-19636H-327.8a6,6,0,0,1,6,6v12a6,6,0,0,1-6,6h-45.015v16.611h52.4a6.05,6.05,0,0,1,6.044,6.055v12.088a6.051,6.051,0,0,1-6.044,6.045Z" transform="translate(2087 39982)" fill="url(#linear-gradient)"/>
    <rect id="矩形_336" data-name="矩形 336" width="24" height="105" rx="6" transform="translate(1265 20306)" fill="url(#linear-gradient)"/>
    <rect id="矩形_338" data-name="矩形 338" width="28" height="28" rx="14" transform="translate(1226 20344)" fill="#ab7df1"/>
    <rect id="矩形_337" data-name="矩形 337" width="24" height="105" rx="6" transform="translate(1192 20306)" fill="url(#linear-gradient)"/>
    <path id="路径_41947" data-name="路径 41947" d="M85.737,176.528V125.673A221.2,221.2,0,0,0,0,188.959a286.2,286.2,0,0,1,59.675-33.98v45.682a41.174,41.174,0,0,0,82.349,0V134.12a287.008,287.008,0,0,1,56.816,0v66.542a41.175,41.175,0,0,0,82.349,0V154.979a286.471,286.471,0,0,1,59.675,33.98,221.24,221.24,0,0,0-85.739-63.286v76.366a15.114,15.114,0,0,1-30.228,0V115.623a221.374,221.374,0,0,0-108.931,0v86.416a15.115,15.115,0,0,1-30.23,0V176.528Zm0-62.975V41.174a15.115,15.115,0,0,1,30.23,0v62.331a220.972,220.972,0,0,1,26.057-4.973V41.174a41.174,41.174,0,0,0-82.349,0v85.239a221.948,221.948,0,0,1,26.062-12.86m195.452,12.86V41.174a41.175,41.175,0,0,0-82.349,0V98.533a221.057,221.057,0,0,1,26.057,4.973V41.174a15.114,15.114,0,0,1,30.228,0v72.379a221.616,221.616,0,0,1,26.064,12.86" transform="translate(1166.865 20514.836) rotate(180)" fill-rule="evenodd" fill="url(#linear-gradient-9)"/>
  </g>
</svg>
